<svg width="19" height="20" viewBox="0 0 19 20" fill="none" xmlns="http://www.w3.org/2000/svg">
<path d="M18.6457 7.41927C18.5881 7.24946 18.4819 7.10025 18.3404 6.99006C18.199 6.87987 18.0283 6.81353 17.8495 6.79922L12.6204 6.38371L10.3576 1.3747C10.2855 1.21337 10.1683 1.07634 10.0201 0.980156C9.87186 0.883971 9.69897 0.832739 9.52227 0.832642C9.34558 0.832545 9.17263 0.883587 9.02431 0.979609C8.87598 1.07563 8.75862 1.21253 8.68637 1.37378L6.42356 6.38371L1.19441 6.79922C1.01871 6.81314 0.850753 6.87738 0.710616 6.98425C0.570478 7.09113 0.464098 7.23612 0.404203 7.40187C0.344307 7.56762 0.333433 7.74712 0.372881 7.91889C0.412328 8.09066 0.500427 8.24743 0.626638 8.37044L4.49095 12.1375L3.12427 18.0555C3.08277 18.2347 3.09607 18.4221 3.16244 18.5936C3.22881 18.7651 3.3452 18.9127 3.49648 19.0172C3.64777 19.1217 3.82698 19.1783 4.01085 19.1797C4.19472 19.1811 4.37477 19.1272 4.52763 19.025L9.52198 15.6955L14.5163 19.025C14.6726 19.1288 14.8568 19.1822 15.0443 19.1781C15.2318 19.1739 15.4135 19.1125 15.5651 19.002C15.7166 18.8916 15.8307 18.7373 15.892 18.5601C15.9532 18.3828 15.9587 18.1911 15.9078 18.0106L14.2301 12.1403L18.3907 8.39612C18.6631 8.15031 18.7631 7.7669 18.6457 7.41927Z" fill="#F3CD03"/>
</svg>
